<svg xmlns="http://www.w3.org/2000/svg" xmlns:xlink="http://www.w3.org/1999/xlink" id="Layer_1" width="32" height="32" x="0" y="0" enable-background="new 0 0 32 32" version="1.1" viewBox="0 0 32 32" xml:space="preserve"><g><g><g><polygon fill="#F1BE44" points="10 16 6 23 12.008 23 12 31 23 16"/><linearGradient id="SVGID_1_" x1="8" x2="23" y1="20.328" y2="20.328" gradientUnits="userSpaceOnUse"><stop offset="0" style="stop-color:#bfbfbf"/><stop offset=".85" style="stop-color:#b3b3b3"/></linearGradient><polygon fill="url(#SVGID_1_)" points="8 16 16.656 24.656 23 16"/></g><radialGradient id="SVGID_2_" cx="7.973" cy="2.897" r="27.71" gradientUnits="userSpaceOnUse"><stop offset="0" style="stop-color:#f5f3eb"/><stop offset=".65" style="stop-color:#e1decf"/><stop offset=".816" style="stop-color:#dbd8ca"/><stop offset="1" style="stop-color:#cdcbbe"/></radialGradient><path fill="url(#SVGID_2_)" d="M30.578,19C30.846,18.387,31,17.712,31,17c0-2.762-2.238-5-5-5h-1v-2c0-2.762-2.238-5-5-5h-1.5 c-0.979-2.349-3.297-4-6-4C8.91,1,6,3.91,6,7.5v1.681C3.135,9.859,1,12.428,1,15.5c0,1.29,0.381,2.489,1.029,3.5H30.578z"/></g><radialGradient id="SVGID_3_" cx="21.962" cy="26.029" r="5.392" gradientUnits="userSpaceOnUse"><stop offset="0" style="stop-color:#4988f7"/><stop offset="1" style="stop-color:#377cea"/></radialGradient><path fill="url(#SVGID_3_)" d="M21,28.5c0,1.381,1.119,2.5,2.5,2.5s2.5-1.119,2.5-2.5c0-1.719-2.5-5.5-2.5-5.5S21,26.781,21,28.5z"/></g></svg>