<svg xmlns="http://www.w3.org/2000/svg" xmlns:xlink="http://www.w3.org/1999/xlink" id="Layer_1" width="32" height="32" x="0" y="0" enable-background="new 0 0 32 32" version="1.1" viewBox="0 0 32 32" xml:space="preserve"><g><g><linearGradient id="SVGID_1_" x1="16.8" x2="33.678" y1="-1.7" y2="15.178" gradientUnits="userSpaceOnUse"><stop offset="0" style="stop-color:#f1be44"/><stop offset="1" style="stop-color:#d79f2a"/></linearGradient><polygon fill="url(#SVGID_1_)" points="20 5 27 5 27 12"/><linearGradient id="SVGID_2_" x1="-.644" x2="14.125" y1="17.856" y2="32.625" gradientUnits="userSpaceOnUse"><stop offset="0" style="stop-color:#f1be44"/><stop offset="1" style="stop-color:#d79f2a"/></linearGradient><polygon fill="url(#SVGID_2_)" points="12 27 5 27 5 20"/><polygon fill="#FBE18D" points="12 5 5 5 5 12"/><polygon fill="#EFB424" points="20 27 27 27 27 20"/><polygon fill="#EFB424" points="31 16 25 22 25 10"/><polygon fill="#F1B123" points="1 16 7 22 7 10"/><polygon fill="#EFB424" points="16 31 22 25 10 25"/><g><polygon fill="#B3B3B3" points="20 27 27 27 27 20"/><polygon fill="#B3B3B3" points="31 16 25 22 25 10"/><polygon fill="#B3B3B3" points="16 31 22 25 10 25"/></g><polygon fill="#F1B123" points="16 1 22 7 10 7"/><radialGradient id="SVGID_3_" cx="8.207" cy="7.207" r="23.701" gradientUnits="userSpaceOnUse"><stop offset="0" style="stop-color:#fad257"/><stop offset="1" style="stop-color:#f1c344"/></radialGradient><circle cx="16" cy="16" r="12" fill="url(#SVGID_3_)"/></g></g></svg>